<?xml version="1.0" encoding="UTF-8" standalone="no"?>
<svg
   xmlns:dc="http://purl.org/dc/elements/1.1/"
   xmlns:cc="http://creativecommons.org/ns#"
   xmlns:rdf="http://www.w3.org/1999/02/22-rdf-syntax-ns#"
   xmlns:svg="http://www.w3.org/2000/svg"
   xmlns="http://www.w3.org/2000/svg"
   xmlns:sodipodi="http://sodipodi.sourceforge.net/DTD/sodipodi-0.dtd"
   xmlns:inkscape="http://www.inkscape.org/namespaces/inkscape"
   width="210mm"
   height="297mm"
   viewBox="0 0 210 297"
   version="1.1"
   id="svg8"
   inkscape:version="1.0.2 (e86c870879, 2021-01-15, custom)"
   sodipodi:docname="logo.svg"
   inkscape:export-filename="C:\dev\git\ioBroker.vis-3dmodel\widgets\vis-3dmodel\img\3dmodel.png"
   inkscape:export-xdpi="64.605904"
   inkscape:export-ydpi="64.605904">
  <defs
     id="defs2">
    <inkscape:path-effect
       effect="lattice2"
       gridpoint0="76.945625,143.70891"
       gridpoint1="90.478196,146.25566"
       gridpoint2="74.879355,155.14601"
       gridpoint3="90.478196,163.59053"
       gridpoint4="74.029976,146.25566"
       gridpoint5="84.995456,146.25566"
       gridpoint6="74.029976,163.59053"
       gridpoint7="84.995456,163.59053"
       gridpoint8x9="79.512716,146.25566"
       gridpoint10x11="79.512716,163.59053"
       gridpoint12="68.547236,150.58938"
       gridpoint13="90.478196,150.58938"
       gridpoint14="68.547236,159.25681"
       gridpoint15="90.478196,159.25681"
       gridpoint16="74.029976,150.58938"
       gridpoint17="84.995456,150.58938"
       gridpoint18="74.029976,159.25681"
       gridpoint19="84.995456,159.25681"
       gridpoint20x21="79.512716,150.58938"
       gridpoint22x23="79.512716,159.25681"
       gridpoint24x26="68.547236,154.9231"
       gridpoint25x27="90.478196,154.9231"
       gridpoint28x30="74.029976,154.9231"
       gridpoint29x31="84.995456,154.9231"
       gridpoint32x33x34x35="79.512716,154.9231"
       id="path-effect1252"
       is_visible="true"
       lpeversion="1"
       horizontal_mirror="false"
       vertical_mirror="false"
       perimetral="false"
       live_update="true" />
    <inkscape:path-effect
       effect="lattice2"
       gridpoint0="94.675494,162.42956"
       gridpoint1="106.44281,159.83862"
       gridpoint2="94.675494,170.44457"
       gridpoint3="106.50327,166.63149"
       gridpoint4="98.025408,162.42956"
       gridpoint5="104.72524,162.42956"
       gridpoint6="98.025408,170.44457"
       gridpoint7="104.72524,170.44457"
       gridpoint8x9="101.37532,162.42956"
       gridpoint10x11="101.37532,170.44457"
       gridpoint12="94.675494,164.43331"
       gridpoint13="108.07515,164.72663"
       gridpoint14="94.675494,168.44082"
       gridpoint15="108.07515,168.44082"
       gridpoint16="98.025408,164.43331"
       gridpoint17="104.72524,164.43331"
       gridpoint18="98.025408,168.44082"
       gridpoint19="104.72524,168.44082"
       gridpoint20x21="101.37532,164.43331"
       gridpoint22x23="101.37532,168.44082"
       gridpoint24x26="94.675494,166.43707"
       gridpoint25x27="108.07515,166.43707"
       gridpoint28x30="98.025408,166.43707"
       gridpoint29x31="104.72524,166.43707"
       gridpoint32x33x34x35="101.37532,166.43707"
       id="path-effect916"
       is_visible="true"
       lpeversion="1"
       horizontal_mirror="false"
       vertical_mirror="false"
       perimetral="false"
       live_update="true" />
    <rect
       x="93.811604"
       y="160.62899"
       width="52.919366"
       height="26.726953"
       id="rect887" />
    <inkscape:perspective
       sodipodi:type="inkscape:persp3d"
       inkscape:vp_x="0 : 148.5 : 1"
       inkscape:vp_y="0 : 1000 : 0"
       inkscape:vp_z="210 : 148.5 : 1"
       inkscape:persp3d-origin="105 : 99 : 1"
       id="perspective835" />
  </defs>
  <sodipodi:namedview
     id="base"
     pagecolor="#ffffff"
     bordercolor="#666666"
     borderopacity="1.0"
     inkscape:pageopacity="0.0"
     inkscape:pageshadow="2"
     inkscape:zoom="0.70710678"
     inkscape:cx="318.97706"
     inkscape:cy="215.15884"
     inkscape:document-units="mm"
     inkscape:current-layer="layer1"
     inkscape:document-rotation="0"
     showgrid="false"
     showguides="false"
     inkscape:window-width="2560"
     inkscape:window-height="1377"
     inkscape:window-x="-8"
     inkscape:window-y="-8"
     inkscape:window-maximized="1" />
  <metadata
     id="metadata5">
    <rdf:RDF>
      <cc:Work
         rdf:about="">
        <dc:format>image/svg+xml</dc:format>
        <dc:type
           rdf:resource="http://purl.org/dc/dcmitype/StillImage" />
        <dc:title></dc:title>
      </cc:Work>
    </rdf:RDF>
  </metadata>
  <g
     inkscape:label="Ebene 1"
     inkscape:groupmode="layer"
     id="layer1">
    <path
       d="m 82.049928,107.88067 17.055375,5.70749 21.172037,-5.28814 -17.96861,-4.00874 z"
       style="fill:none;fill-rule:evenodd;stroke:#3399dd;stroke-width:1;stroke-linecap:butt;stroke-linejoin:round;stroke-miterlimit:4;stroke-dasharray:none;stroke-opacity:1;fill-opacity:1"
       id="path871" />
    <path
       d="m 99.105303,113.58816 v 30.59106 l 21.172037,-10.67425 v -25.20495 z"
       style="fill:none;fill-rule:evenodd;stroke:#3399dd;stroke-width:1;stroke-linecap:butt;stroke-linejoin:round;stroke-miterlimit:4;stroke-dasharray:none;stroke-opacity:1;fill-opacity:1"
       id="path873" />
    <path
       d="m 82.049928,107.88067 17.055375,5.70749 v 30.59106 L 82.049928,132.6585 Z"
       style="fill:none;fill-rule:evenodd;stroke:#3399dd;stroke-width:1;stroke-linecap:butt;stroke-linejoin:round;stroke-miterlimit:4;stroke-dasharray:none;stroke-opacity:1;fill-opacity:1"
       id="path875" />
    <g
       aria-label="3D"
       transform="matrix(1.1052049,0,0,1.3668083,-0.60589112,-99.804587)"
       id="text885"
       style="font-style:normal;font-variant:normal;font-weight:normal;font-stretch:normal;font-size:10.5833px;line-height:125%;font-family:Verdana;-inkscape-font-specification:Verdana;letter-spacing:0px;word-spacing:0px;white-space:pre;shape-inside:url(#rect887);fill:#000000;fill-opacity:1;stroke:none;stroke-width:0.264583px;stroke-linecap:butt;stroke-linejoin:miter;stroke-opacity:1"
       inkscape:path-effect="#path-effect916">
      <path
         d="m 98.638701,165.54379 c 0.145952,0.10055 0.266345,0.24209 0.361006,0.42425 0.09469,0.1822 0.142572,0.43625 0.143584,0.76413 0.001,0.32469 -0.05425,0.63872 -0.165857,0.94497 -0.111561,0.30613 -0.268995,0.59352 -0.472074,0.86189 -0.227345,0.29873 -0.496085,0.55516 -0.805971,0.76683 -0.306876,0.2074 -0.644357,0.37159 -1.012307,0.49021 -0.377083,0.12156 -0.748135,0.19082 -1.113077,0.2056 -0.364998,0.0182 -0.664368,0.004 -0.898511,-0.0429 0.0088,-0.35278 0,-1.08003 0,-1.08003 0.03161,5.4e-4 0.06835,-0.0205 0.06835,-0.0205 0.258311,0.11542 0.562046,0.18193 0.911674,0.20016 0.349488,0.0182 0.687044,-0.0246 1.01218,-0.12536 0.191521,-0.0594 0.395,-0.15753 0.610702,-0.29353 0.215609,-0.13594 0.390223,-0.29159 0.523589,-0.46628 0.139451,-0.18639 0.242404,-0.37529 0.308815,-0.56715 0.06946,-0.19279 0.103857,-0.41988 0.103226,-0.68205 -6.23e-4,-0.259 -0.0406,-0.46155 -0.119897,-0.60887 -0.07625,-0.15135 -0.18279,-0.25809 -0.319498,-0.31994 -0.1367,-0.0651 -0.302239,-0.0908 -0.496406,-0.0763 -0.194183,0.0112 -0.403572,0.0457 -0.628011,0.10424 -0.127726,0.043 -0.409506,0.10671 -0.409506,0.10671 0.0085,-0.27084 -8.59e-4,-0.83711 -8.59e-4,-0.83711 0.114947,-0.0187 0.31833,-0.0788 0.31833,-0.0788 0.460403,-0.11395 0.827933,-0.31019 1.09989,-0.58422 0.275407,-0.27851 0.412566,-0.61664 0.411653,-1.02202 -4.04e-4,-0.17942 -0.03559,-0.32828 -0.105531,-0.44647 -0.06995,-0.12153 -0.167078,-0.21245 -0.291379,-0.27236 -0.130381,-0.0586 -0.269703,-0.0885 -0.418116,-0.0893 -0.148396,-8.4e-4 -0.316418,0.0196 -0.504105,0.0614 -0.287541,0.0641 -0.593276,0.19013 -0.917093,0.37889 -0.323776,0.18873 -0.629658,0.422 -0.91725,0.70056 -0.0064,0.0114 -0.04543,0.0103 -0.04543,0.0103 0.0087,-0.35126 -1.36e-4,-1.07872 -1.36e-4,-1.07872 0.214878,-0.16802 0.500759,-0.34113 0.857747,-0.51956 0.359962,-0.1825 0.707867,-0.31075 1.04366,-0.38468 0.329846,-0.0726 0.62018,-0.10211 0.871514,-0.0888 0.251342,0.0134 0.478335,0.0731 0.681535,0.17821 0.218266,0.11536 0.383756,0.27529 0.496383,0.47836 0.112637,0.20308 0.169426,0.45494 0.170292,0.75488 0.0012,0.40871 -0.131076,0.79251 -0.397016,1.16053 -0.262564,0.36354 -0.575149,0.63181 -0.935491,0.80161 0.0089,0.0303 1.38e-4,0.069 1.38e-4,0.069 0.145693,-0.0106 0.312436,0.003 0.500751,0.0394 0.188197,0.0333 0.347755,0.0942 0.478495,0.1826 0,0 7e-6,6e-5 7e-6,6e-5 z"
         style="fill:#3399dd;fill-opacity:1;stroke-width:0.26442844;stroke-miterlimit:4;stroke-dasharray:none"
         id="path907"
         inkscape:original-d="m 99.176497,166.57918 q 0.248046,0.22221 0.408242,0.55811 0.160197,0.33589 0.160197,0.86816 0,0.5271 -0.191203,0.96634 -0.191202,0.43925 -0.537433,0.76481 -0.387572,0.36174 -0.91467,0.53744 -0.52193,0.17053 -1.147213,0.17053 -0.640786,0 -1.260901,-0.15503 -0.620115,-0.14986 -1.018022,-0.33073 v -1.08003 h 0.07751 q 0.439248,0.28938 1.033525,0.48059 0.594278,0.1912 1.147214,0.1912 0.32556,0 0.692462,-0.10852 0.366901,-0.10852 0.594277,-0.32039 0.23771,-0.22738 0.351398,-0.50126 0.118856,-0.27389 0.118856,-0.69247 0,-0.41341 -0.134359,-0.68212 -0.12919,-0.27389 -0.361733,-0.42892 -0.232544,-0.16019 -0.563272,-0.21704 -0.330728,-0.062 -0.713132,-0.062 h -0.465087 v -0.85782 h 0.361734 q 0.785479,0 1.250566,-0.32556 0.470254,-0.33073 0.470254,-0.96118 0,-0.27906 -0.118856,-0.48576 -0.118855,-0.21187 -0.330728,-0.34623 -0.222208,-0.13436 -0.475421,-0.18604 -0.253214,-0.0517 -0.573607,-0.0517 -0.490924,0 -1.043861,0.1757 -0.552936,0.1757 -1.04386,0.49609 h -0.05168 v -1.08003 q 0.366901,-0.18087 0.976681,-0.33073 0.614948,-0.15503 1.188554,-0.15503 0.563272,0 0.992185,0.10335 0.428913,0.10335 0.775144,0.33073 0.372069,0.24805 0.563271,0.59944 0.191202,0.3514 0.191202,0.82166 0,0.64078 -0.454751,1.12137 -0.449584,0.47542 -1.064531,0.59945 v 0.0723 q 0.248046,0.0413 0.568439,0.1757 0.320393,0.12919 0.542601,0.32556 z" />
      <path
         d="m 106.4731,163.388 c 0.005,0.56702 -0.12494,1.10479 -0.39108,1.64255 -0.26242,0.53547 -0.61772,1.01066 -1.06177,1.41434 -0.30862,0.28014 -0.65416,0.52524 -1.0367,0.73132 -0.37918,0.20492 -0.88121,0.40894 -1.50426,0.60851 -0.56292,0.18928 -1.71491,0.5493 -1.71491,0.5493 -5.5e-4,-1.17506 -0.008,-2.87377 -0.0154,-4.34113 -0.007,-1.45672 -0.0145,-2.73803 -0.0145,-2.73803 0.57172,-0.11605 1.68834,-0.37198 1.68834,-0.37198 0.66007,-0.14542 1.18288,-0.20595 1.57134,-0.18368 0.39116,0.0182 0.72164,0.089 0.99244,0.20899 0.46206,0.20825 0.82431,0.53125 1.08561,0.9478 0.26147,0.41685 0.39523,0.92588 0.40087,1.53201 z m -0.94192,0.23122 c -0.004,-0.49807 -0.1002,-0.90492 -0.28784,-1.22073 -0.18755,-0.31565 -0.46552,-0.54583 -0.83333,-0.68061 -0.26783,-0.0976 -0.55111,-0.14512 -0.85148,-0.13934 -0.30024,0.003 -0.65893,0.05 -1.07684,0.14346 -0.27277,0.0705 -0.84464,0.18895 -0.84464,0.18895 0.009,0.94068 0.0156,2.30997 0.0199,3.37913 0.004,1.08484 0.007,1.96524 0.007,1.96524 0.29156,-0.0808 0.84785,-0.26092 0.84785,-0.26092 0.43442,-0.13369 0.81289,-0.28197 1.13443,-0.44265 0.3247,-0.16168 0.62174,-0.36707 0.89085,-0.61287 0.33541,-0.3061 0.58588,-0.64697 0.74989,-1.02116 0.16731,-0.37564 0.24879,-0.80327 0.24463,-1.2985 z"
         style="fill:#3399dd;fill-opacity:1"
         id="path909"
         inkscape:original-d="m 108.07515,166.44482 q 0,1.04903 -0.45992,1.90169 -0.45475,0.85266 -1.21439,1.32291 -0.5271,0.32556 -1.17822,0.47026 -0.64595,0.14469 -1.70532,0.14469 h -1.94302 v -7.69459 h 1.92235 q 1.12655,0 1.788,0.16536 0.66663,0.1602 1.12654,0.44442 0.78548,0.49092 1.22473,1.3074 0.43925,0.81649 0.43925,1.93786 z m -1.0697,-0.0155 q 0,-0.90433 -0.31522,-1.52445 -0.31523,-0.62011 -0.94051,-0.97668 -0.45475,-0.25838 -0.96635,-0.35657 -0.51159,-0.10335 -1.22473,-0.10335 h -0.96117 v 5.9376 h 0.96117 q 0.73897,0 1.28674,-0.10852 0.55294,-0.10852 1.01286,-0.40307 0.5736,-0.3669 0.85782,-0.96635 0.28939,-0.59944 0.28939,-1.49861 z" />
    </g>
    <g
       id="g1005"
       inkscape:path-effect="#path-effect1252"
       transform="matrix(0.701717,0,0,0.69788404,32.058183,18.444509)"
       style="stroke-width:1.42898">
      <path
         id="path932"
         style="fill:none;fill-opacity:1;stroke:#3399dd;stroke-width:6.04079;stroke-miterlimit:4;stroke-dasharray:none;stroke-opacity:1"
         d="m 316.33302,547.95358 c -6.66804,-1.23338 -13.66202,1.18167 -19.322,5.50293 -5.6895,4.3438 -9.95626,10.52641 -11.28347,17.87231 -0.96259,5.32743 -0.38831,11.22156 1.83761,17.51654 16.64465,9.03885 49.84172,26.98208 49.84172,26.98208 3.04577,-5.04439 4.55767,-12.24288 4.55796,-20.34306 -9e-5,-11.35448 -2.94069,-23.37154 -7.70893,-32.23156 -4.84044,-8.9942 -11.06588,-14.00889 -17.86504,-15.28836 -0.0193,-0.004 -0.0385,-0.007 -0.0578,-0.0109 l -3e-5,-3e-5"
         transform="scale(0.26458333)"
         inkscape:original-d="m 300.42578,552.77734 a 41.444885,42.70757 0 0 0 -41.34961,42.70704 41.444885,42.70757 0 0 0 6.40625,22.81054 h 70.07422 a 41.444885,42.70757 0 0 0 6.4082,-22.81054 41.444885,42.70757 0 0 0 -41.44531,-42.70704 41.444885,42.70757 0 0 0 -0.0937,0 z" />
      <path
         style="color:#000000;font-style:normal;font-variant:normal;font-weight:normal;font-stretch:normal;font-size:medium;line-height:normal;font-family:sans-serif;font-variant-ligatures:normal;font-variant-position:normal;font-variant-caps:normal;font-variant-numeric:normal;font-variant-alternates:normal;font-variant-east-asian:normal;font-feature-settings:normal;font-variation-settings:normal;text-indent:0;text-align:start;text-decoration:none;text-decoration-line:none;text-decoration-style:solid;text-decoration-color:#000000;letter-spacing:normal;word-spacing:normal;text-transform:none;writing-mode:lr-tb;direction:ltr;text-orientation:mixed;dominant-baseline:auto;baseline-shift:baseline;text-anchor:start;white-space:normal;shape-padding:0;shape-margin:0;inline-size:0;clip-rule:nonzero;display:inline;overflow:visible;visibility:visible;opacity:1;isolation:auto;mix-blend-mode:normal;color-interpolation:sRGB;color-interpolation-filters:linearRGB;solid-color:#000000;solid-opacity:1;vector-effect:none;fill:#3399dd;fill-opacity:1;fill-rule:nonzero;stroke:none;stroke-width:1.42898;stroke-linecap:butt;stroke-linejoin:miter;stroke-miterlimit:4;stroke-dasharray:none;stroke-dashoffset:0;stroke-opacity:1;color-rendering:auto;image-rendering:auto;shape-rendering:auto;text-rendering:auto;enable-background:accumulate;stop-color:#000000;stop-opacity:1"
         d="m 315.56388,554.98765 c -10.84664,-2.60655 -22.2891,6.3697 -24.12324,18.23439 -0.60629,3.92198 -0.45842,6.97969 0.5681,10.48412 0.66917,2.28445 2.47312,1.62501 2.01644,0.0406 -1.04994,-3.64278 -0.95003,-5.98371 -0.42407,-9.60512 1.61081,-11.09088 11.85947,-19.08432 21.77048,-16.51529 10.00285,2.59283 18.44091,16.87752 18.12602,33.49636 -0.0921,4.8587 -0.75974,7.56971 -1.81616,11.76507 -0.21112,0.83843 1.44244,2.44914 1.74938,1.79976 1.66493,-3.52229 2.15047,-7.22681 2.22593,-12.64584 0.25949,-18.63615 -9.11932,-34.41697 -20.09288,-37.05401 z"
         id="path950"
         transform="scale(0.26458333)"
         sodipodi:nodetypes="sssssssssss"
         inkscape:original-d="m 300.01562,561.33203 c -18.02737,0 -32.63867,14.99029 -32.63867,33.39453 0,5.65269 0.85847,9.70029 2.91741,13.66211 1.15099,2.21474 3.79863,0.86847 2.71541,-1.24776 -2.1025,-4.10756 -2.44336,-7.28892 -2.44336,-12.41435 0,-16.72229 13.18689,-30.20703 29.44921,-30.20703 16.26233,0 29.44922,13.48474 29.44922,30.20703 0,5.12609 -0.90023,8.25262 -2.26674,13.21987 -0.28187,1.0246 2.13102,1.7905 2.53683,0.9799 2.27683,-4.54782 2.91741,-8.54635 2.91741,-14.19977 0,-18.40424 -14.60934,-33.39453 -32.63672,-33.39453 z" />
      <path
         style="color:#000000;font-style:normal;font-variant:normal;font-weight:normal;font-stretch:normal;font-size:medium;line-height:normal;font-family:sans-serif;font-variant-ligatures:normal;font-variant-position:normal;font-variant-caps:normal;font-variant-numeric:normal;font-variant-alternates:normal;font-variant-east-asian:normal;font-feature-settings:normal;font-variation-settings:normal;text-indent:0;text-align:start;text-decoration:none;text-decoration-line:none;text-decoration-style:solid;text-decoration-color:#000000;letter-spacing:normal;word-spacing:normal;text-transform:none;writing-mode:lr-tb;direction:ltr;text-orientation:mixed;dominant-baseline:auto;baseline-shift:baseline;text-anchor:start;white-space:normal;shape-padding:0;shape-margin:0;inline-size:0;clip-rule:nonzero;display:inline;overflow:visible;visibility:visible;opacity:1;isolation:auto;mix-blend-mode:normal;color-interpolation:sRGB;color-interpolation-filters:linearRGB;solid-color:#000000;solid-opacity:1;vector-effect:none;fill:#3399dd;fill-opacity:1;fill-rule:nonzero;stroke:none;stroke-width:1.42898;stroke-linecap:butt;stroke-linejoin:miter;stroke-miterlimit:4;stroke-dasharray:none;stroke-dashoffset:0;stroke-opacity:1;color-rendering:auto;image-rendering:auto;shape-rendering:auto;text-rendering:auto;enable-background:accumulate;stop-color:#000000;stop-opacity:1"
         d="m 303.85582,569.12859 c -0.8373,-0.88668 -2.56293,-2.73339 -2.56293,-2.73339 0.41518,1.30095 1.20764,3.871 1.20764,3.871 2.3032,6.2738 7.65236,20.96469 7.65236,20.96469 0.83381,1.80234 2.22791,3.38193 3.80627,4.16935 2.77837,1.38663 5.22771,-0.0977 5.4132,-3.49712 0.1046,-1.91585 -0.57704,-3.97174 -1.6812,-5.57942 -4.75906,-6.1521 -9.37085,-11.88381 -13.83534,-17.19511 z m 2.75812,6.52681 c 2.46738,3.06633 7.46134,9.44351 7.46134,9.44351 0.51226,0.71197 1.47837,2.03229 1.47837,2.03229 0.74841,1.03663 1.58763,2.36384 1.50606,3.69756 -0.10282,1.68214 -1.35231,2.51533 -2.90686,1.76499 -1.21631,-0.58685 -2.04452,-2.14831 -2.53861,-3.44636 -0.21979,-0.61929 -0.7235,-1.96797 -0.7235,-1.96797 -5e-5,-1.3e-4 -4.27675,-11.52389 -4.2768,-11.52402 z"
         id="path966"
         transform="scale(0.26458333)"
         sodipodi:nodetypes="ccccccscccccccsccccc"
         inkscape:original-d="m 284.26667,582.98221 -4.19228,-2.31486 2.40862,4.38654 13.68108,21.62972 v 0 c 1.36136,1.66035 3.44227,2.68745 5.70313,2.6875 3.95097,7e-4 7.27918,-3.08843 7.27929,-6.97265 1.6e-4,-2.21138 -1.12723,-4.18193 -2.8496,-5.46875 v 0 z m 4.95794,6.81076 11.79492,7.55078 v 0 l 2.30078,1.59766 c 1.16354,0.81218 2.46691,1.89313 2.4668,3.45703 -6e-5,1.96305 -1.6862,3.61367 -3.91992,3.61328 -1.7536,-5e-5 -3.06706,-1.35836 -3.89844,-2.61384 l -1.23047,-1.92718 v 0 z" />
    </g>
  </g>
</svg>
